<mxfile host="app.diagrams.net" modified="2023-09-29T17:37:06.240Z" agent="Mozilla/5.0 (X11; Linux x86_64; rv:103.0) Gecko/20100101 Firefox/103.0" etag="owc6cptNZTHKeHe6huX7" version="22.0.0" type="github">
  <diagram id="R2lEEEUBdFMjLlhIrx00" name="Page-1">
    <mxGraphModel dx="1434" dy="689" grid="1" gridSize="10" guides="1" tooltips="1" connect="1" arrows="1" fold="1" page="1" pageScale="1" pageWidth="850" pageHeight="1100" math="0" shadow="0" extFonts="Permanent Marker^https://fonts.googleapis.com/css?family=Permanent+Marker">
      <root>
        <mxCell id="0" />
        <mxCell id="1" parent="0" />
        <mxCell id="-L5dSIFc_vX_w7ofcUza-1" value="VENDEDOR" style="swimlane;whiteSpace=wrap;html=1;" vertex="1" parent="1">
          <mxGeometry x="30" y="120" width="200" height="200" as="geometry" />
        </mxCell>
        <mxCell id="-L5dSIFc_vX_w7ofcUza-2" value="&lt;div&gt;CÓDIGO&lt;/div&gt;&lt;div&gt;NOME&lt;/div&gt;&lt;div&gt;ENDEREÇO&lt;/div&gt;&lt;div&gt;COMISSÃO&lt;br&gt;&lt;/div&gt;" style="text;html=1;align=center;verticalAlign=middle;resizable=0;points=[];autosize=1;strokeColor=none;fillColor=none;" vertex="1" parent="-L5dSIFc_vX_w7ofcUza-1">
          <mxGeometry x="55" y="65" width="90" height="70" as="geometry" />
        </mxCell>
        <mxCell id="-L5dSIFc_vX_w7ofcUza-3" value="CLIENTE" style="swimlane;whiteSpace=wrap;html=1;" vertex="1" parent="1">
          <mxGeometry x="380" y="120" width="200" height="200" as="geometry" />
        </mxCell>
        <mxCell id="-L5dSIFc_vX_w7ofcUza-4" value="&lt;div&gt;CÓDIGO&lt;/div&gt;&lt;div&gt;NOME&lt;/div&gt;&lt;div&gt;ENDEREÇO&lt;/div&gt;&lt;div&gt;FATURAMENTO&lt;/div&gt;&lt;div&gt;LIMITE DE CRÉDITO&lt;br&gt;&lt;/div&gt;" style="text;html=1;align=center;verticalAlign=middle;resizable=0;points=[];autosize=1;strokeColor=none;fillColor=none;" vertex="1" parent="-L5dSIFc_vX_w7ofcUza-3">
          <mxGeometry x="30" y="55" width="140" height="90" as="geometry" />
        </mxCell>
        <mxCell id="-L5dSIFc_vX_w7ofcUza-5" value="DT" style="rhombus;whiteSpace=wrap;html=1;" vertex="1" parent="1">
          <mxGeometry x="270" y="180" width="80" height="80" as="geometry" />
        </mxCell>
        <mxCell id="-L5dSIFc_vX_w7ofcUza-6" value="" style="endArrow=none;dashed=1;html=1;rounded=0;entryX=0;entryY=0.5;entryDx=0;entryDy=0;" edge="1" parent="1" target="-L5dSIFc_vX_w7ofcUza-5">
          <mxGeometry width="50" height="50" relative="1" as="geometry">
            <mxPoint x="230" y="219.5" as="sourcePoint" />
            <mxPoint x="290" y="219.5" as="targetPoint" />
          </mxGeometry>
        </mxCell>
        <mxCell id="-L5dSIFc_vX_w7ofcUza-7" value="" style="endArrow=none;dashed=1;html=1;rounded=0;entryX=0;entryY=0.5;entryDx=0;entryDy=0;" edge="1" parent="1">
          <mxGeometry width="50" height="50" relative="1" as="geometry">
            <mxPoint x="350" y="220" as="sourcePoint" />
            <mxPoint x="380" y="220" as="targetPoint" />
          </mxGeometry>
        </mxCell>
        <mxCell id="-L5dSIFc_vX_w7ofcUza-8" value="1" style="text;html=1;strokeColor=none;fillColor=none;align=center;verticalAlign=middle;whiteSpace=wrap;rounded=0;" vertex="1" parent="1">
          <mxGeometry x="230" y="185" width="60" height="30" as="geometry" />
        </mxCell>
        <mxCell id="-L5dSIFc_vX_w7ofcUza-9" value="1...N" style="text;html=1;strokeColor=none;fillColor=none;align=center;verticalAlign=middle;whiteSpace=wrap;rounded=0;" vertex="1" parent="1">
          <mxGeometry x="320" y="185" width="60" height="30" as="geometry" />
        </mxCell>
        <mxCell id="-L5dSIFc_vX_w7ofcUza-10" value="" style="endArrow=none;dashed=1;html=1;rounded=0;exitX=0.5;exitY=0;exitDx=0;exitDy=0;" edge="1" parent="1" source="-L5dSIFc_vX_w7ofcUza-11">
          <mxGeometry width="50" height="50" relative="1" as="geometry">
            <mxPoint x="309.5" y="320" as="sourcePoint" />
            <mxPoint x="309.5" y="260" as="targetPoint" />
          </mxGeometry>
        </mxCell>
        <mxCell id="-L5dSIFc_vX_w7ofcUza-11" value="Vertical Container" style="swimlane;whiteSpace=wrap;html=1;" vertex="1" parent="1">
          <mxGeometry x="210" y="400" width="200" height="200" as="geometry" />
        </mxCell>
        <mxCell id="-L5dSIFc_vX_w7ofcUza-12" value="&lt;div&gt;CÓDIGO&lt;/div&gt;&lt;div&gt;DESCRIÇÃO&lt;/div&gt;&lt;div&gt;PREÇO&lt;/div&gt;&lt;div&gt;QUANTIDADE EM ESTOQUE&lt;/div&gt;&lt;div&gt;Nº ARMAZEM&lt;br&gt;&lt;/div&gt;" style="text;html=1;align=center;verticalAlign=middle;resizable=0;points=[];autosize=1;strokeColor=none;fillColor=none;" vertex="1" parent="-L5dSIFc_vX_w7ofcUza-11">
          <mxGeometry x="10" y="55" width="180" height="90" as="geometry" />
        </mxCell>
        <mxCell id="-L5dSIFc_vX_w7ofcUza-13" value="N" style="text;html=1;strokeColor=none;fillColor=none;align=center;verticalAlign=middle;whiteSpace=wrap;rounded=0;" vertex="1" parent="1">
          <mxGeometry x="290" y="250" width="60" height="30" as="geometry" />
        </mxCell>
        <mxCell id="-L5dSIFc_vX_w7ofcUza-14" value="ALOCADA" style="rhombus;whiteSpace=wrap;html=1;" vertex="1" parent="1">
          <mxGeometry x="470" y="455" width="80" height="80" as="geometry" />
        </mxCell>
        <mxCell id="-L5dSIFc_vX_w7ofcUza-15" value="" style="endArrow=none;dashed=1;html=1;rounded=0;" edge="1" parent="1">
          <mxGeometry width="50" height="50" relative="1" as="geometry">
            <mxPoint x="410" y="494.5" as="sourcePoint" />
            <mxPoint x="470" y="494.5" as="targetPoint" />
          </mxGeometry>
        </mxCell>
        <mxCell id="-L5dSIFc_vX_w7ofcUza-16" value="1...N" style="text;html=1;strokeColor=none;fillColor=none;align=center;verticalAlign=middle;whiteSpace=wrap;rounded=0;" vertex="1" parent="1">
          <mxGeometry x="430" y="470" width="60" height="30" as="geometry" />
        </mxCell>
        <mxCell id="-L5dSIFc_vX_w7ofcUza-17" value="" style="endArrow=none;dashed=1;html=1;rounded=0;" edge="1" parent="1">
          <mxGeometry width="50" height="50" relative="1" as="geometry">
            <mxPoint x="550" y="494.5" as="sourcePoint" />
            <mxPoint x="630" y="494.5" as="targetPoint" />
          </mxGeometry>
        </mxCell>
        <mxCell id="-L5dSIFc_vX_w7ofcUza-18" value="ARMAZÉM" style="swimlane;whiteSpace=wrap;html=1;" vertex="1" parent="1">
          <mxGeometry x="630" y="385" width="200" height="200" as="geometry" />
        </mxCell>
        <mxCell id="-L5dSIFc_vX_w7ofcUza-19" value="&lt;div&gt;CÓDIGO&lt;/div&gt;&lt;div&gt;ENDEREÇO&lt;br&gt;&lt;/div&gt;" style="text;html=1;align=center;verticalAlign=middle;resizable=0;points=[];autosize=1;strokeColor=none;fillColor=none;" vertex="1" parent="-L5dSIFc_vX_w7ofcUza-18">
          <mxGeometry x="55" y="80" width="90" height="40" as="geometry" />
        </mxCell>
        <mxCell id="-L5dSIFc_vX_w7ofcUza-20" value="1" style="text;html=1;strokeColor=none;fillColor=none;align=center;verticalAlign=middle;whiteSpace=wrap;rounded=0;" vertex="1" parent="1">
          <mxGeometry x="520" y="470" width="60" height="30" as="geometry" />
        </mxCell>
      </root>
    </mxGraphModel>
  </diagram>
</mxfile>
